<?xml version="1.0" encoding="UTF-8" standalone="no"?>
<!-- Created with Serif DrawPlus 11, 0, 3, 23 (Feb 25, 14:12:55) (http://www.serif.com) -->
<svg version="1.1" xmlns="http://www.w3.org/2000/svg" xmlns:xlink="http://www.w3.org/1999/xlink" width="482.668" height="404.001">
	<g id="dp_group001" transform="matrix(1,0,0,1,-48.6667,-782.761)">
		<path id="dp_path002" fill="white" fill-rule="evenodd" stroke="none" stroke-width="1.33333" stroke-dasharray="6.4,3.2,6.4,3.2" d="M 49.3333,783.428 L 530.667,783.428 L 530.667,1186.09 L 49.3333,1186.09 Z "/>
		<g id="dp_group003">
			<g id="dp_group004">
				<path id="dp_path005" fill="#f27705" fill-rule="evenodd" d="M 462.252,1025.81 L 462.843,1027.73 L 464.025,1031.55 L 472.101,1023.82 L 461.071,1021.99 Z "/>
				<path id="dp_path006" fill="#f27705" d="M 462.253,1025.81 L 461.404,1026.08 L 460.341,1026.37 L 459.259,1026.66 L 458.169,1026.95 L 457.073,1027.23 L 455.971,1027.5 L 454.861,1027.77 L 453.745,1028.04 L 452.624,1028.3 L 451.495,1028.56 L 450.36,1028.81 L 449.219,1029.06 L 448.072,1029.3 L 446.919,1029.54 L 445.76,1029.77 L 444.593,1029.99 L 443.421,1030.22 L 442.244,1030.43 L 441.061,1030.64 L 439.872,1030.85 L 438.677,1031.05 L 437.479,1031.25 L 436.273,1031.44 L 435.061,1031.62 L 433.845,1031.8 L 432.624,1031.97 L 431.396,1032.14 L 430.164,1032.31 L 428.928,1032.46 L 427.685,1032.62 L 426.439,1032.76 L 425.187,1032.9 L 423.929,1033.04 L 422.668,1033.17 L 421.401,1033.29 L 420.131,1033.41 L 418.855,1033.52 L 417.575,1033.63 L 416.291,1033.73 L 415.001,1033.82 L 413.709,1033.91 L 412.412,1033.99 L 411.111,1034.07 L 409.804,1034.14 L 408.495,1034.21 L 407.183,1034.27 L 405.864,1034.32 L 404.544,1034.37 L 403.219,1034.41 L 401.891,1034.44 L 400.557,1034.47 L 399.223,1034.49 L 397.883,1034.51 L 396.541,1034.52 L 395.195,1034.52 L 394.188,1034.52 L 393.185,1034.51 L 392.183,1034.51 L 391.184,1034.49 L 390.187,1034.48 L 389.192,1034.46 L 388.197,1034.43 L 387.205,1034.41 L 386.215,1034.38 L 385.228,1034.35 L 384.241,1034.31 L 383.259,1034.27 L 382.277,1034.23 L 381.299,1034.18 L 380.321,1034.13 L 379.345,1034.08 L 378.375,1034.02 L 377.404,1033.96 L 376.435,1033.9 L 375.472,1033.83 L 374.508,1033.76 L 373.548,1033.69 L 372.589,1033.61 L 371.633,1033.53 L 370.68,1033.45 L 369.729,1033.36 L 368.781,1033.27 L 367.836,1033.18 L 366.892,1033.08 L 365.952,1032.99 L 365.015,1032.88 L 364.08,1032.78 L 363.149,1032.67 L 362.219,1032.56 L 361.292,1032.44 L 360.368,1032.33 L 359.447,1032.2 L 358.529,1032.08 L 357.613,1031.95 L 356.701,1031.82 L 355.792,1031.69 L 354.885,1031.56 L 353.983,1031.42 L 353.083,1031.27 L 352.184,1031.13 L 351.291,1030.98 L 350.4,1030.83 L 349.511,1030.68 L 348.628,1030.52 L 347.747,1030.36 L 346.867,1030.2 L 345.992,1030.03 L 345.12,1029.87 L 344.252,1029.69 L 343.388,1029.52 L 342.525,1029.34 L 341.667,1029.17 L 340.812,1028.98 L 339.961,1028.8 L 339.115,1028.61 L 338.269,1028.42 L 337.428,1028.23 L 336.591,1028.03 L 335.757,1027.83 L 334.928,1027.63 L 334.1,1027.43 L 333.279,1027.22 L 332.46,1027.01 L 331.645,1026.8 L 330.833,1026.58 L 330.027,1026.37 L 329.223,1026.15 L 328.423,1025.92 L 327.627,1025.7 L 326.835,1025.47 L 326.048,1025.24 L 325.264,1025.01 L 324.484,1024.77 L 323.707,1024.53 L 322.935,1024.29 L 322.167,1024.05 L 321.404,1023.8 L 320.644,1023.56 L 319.889,1023.31 L 319.137,1023.05 L 318.392,1022.8 L 317.648,1022.54 L 316.909,1022.28 L 316.177,1022.02 L 315.447,1021.75 L 314.723,1021.48 L 314,1021.21 L 313.284,1020.94 L 312.573,1020.67 L 311.865,1020.39 L 311.161,1020.11 L 310.464,1019.83 L 309.771,1019.55 L 309.08,1019.26 L 308.397,1018.98 L 307.717,1018.69 L 307.041,1018.39 L 306.372,1018.1 L 305.707,1017.8 L 305.047,1017.51 L 304.389,1017.2 L 303.737,1016.9 L 303.091,1016.6 L 302.449,1016.29 L 301.815,1015.98 L 301.184,1015.67 L 300.556,1015.35 L 299.935,1015.04 L 299.319,1014.72 L 298.707,1014.4 L 298.101,1014.08 L 297.5,1013.76 L 296.903,1013.43 L 296.312,1013.1 L 295.727,1012.77 L 295.148,1012.44 L 294.572,1012.11 L 294.003,1011.77 L 293.437,1011.44 L 292.879,1011.1 L 292.325,1010.76 L 291.776,1010.41 L 291.232,1010.07 L 290.16,1011.76 L 290.712,1012.11 L 291.272,1012.46 L 291.839,1012.8 L 292.408,1013.15 L 292.984,1013.49 L 293.564,1013.83 L 294.151,1014.17 L 294.743,1014.51 L 295.339,1014.85 L 295.94,1015.18 L 296.548,1015.51 L 297.157,1015.84 L 297.776,1016.17 L 298.399,1016.49 L 299.025,1016.82 L 299.657,1017.14 L 300.293,1017.46 L 300.935,1017.77 L 301.583,1018.09 L 302.235,1018.4 L 302.892,1018.71 L 303.552,1019.02 L 304.217,1019.32 L 304.888,1019.63 L 305.564,1019.93 L 306.244,1020.23 L 306.928,1020.52 L 307.619,1020.82 L 308.312,1021.11 L 309.011,1021.4 L 309.715,1021.69 L 310.423,1021.97 L 311.135,1022.25 L 311.851,1022.53 L 312.572,1022.81 L 313.299,1023.09 L 314.027,1023.36 L 314.761,1023.63 L 315.5,1023.9 L 316.243,1024.16 L 316.989,1024.43 L 317.741,1024.69 L 318.497,1024.95 L 319.257,1025.2 L 320.02,1025.45 L 320.788,1025.71 L 321.561,1025.95 L 322.337,1026.2 L 323.117,1026.44 L 323.903,1026.68 L 324.691,1026.92 L 325.483,1027.16 L 326.28,1027.39 L 327.08,1027.62 L 327.884,1027.85 L 328.692,1028.07 L 329.504,1028.29 L 330.319,1028.51 L 331.139,1028.73 L 331.961,1028.95 L 332.788,1029.16 L 333.62,1029.37 L 334.453,1029.57 L 335.291,1029.77 L 336.132,1029.97 L 336.977,1030.17 L 337.827,1030.37 L 338.677,1030.56 L 339.535,1030.75 L 340.393,1030.94 L 341.256,1031.12 L 342.123,1031.3 L 342.991,1031.48 L 343.863,1031.65 L 344.739,1031.83 L 345.619,1032 L 346.501,1032.16 L 347.387,1032.33 L 348.276,1032.49 L 349.169,1032.65 L 350.064,1032.8 L 350.963,1032.95 L 351.864,1033.1 L 352.768,1033.25 L 353.676,1033.39 L 354.587,1033.53 L 355.501,1033.67 L 356.416,1033.8 L 357.336,1033.93 L 358.26,1034.06 L 359.185,1034.19 L 360.112,1034.31 L 361.044,1034.43 L 361.979,1034.54 L 362.915,1034.65 L 363.853,1034.76 L 364.796,1034.87 L 365.741,1034.97 L 366.689,1035.07 L 367.639,1035.17 L 368.592,1035.26 L 369.548,1035.35 L 370.504,1035.44 L 371.465,1035.52 L 372.427,1035.6 L 373.393,1035.68 L 374.361,1035.75 L 375.331,1035.82 L 376.304,1035.89 L 377.279,1035.95 L 378.255,1036.01 L 379.236,1036.07 L 380.217,1036.12 L 381.2,1036.18 L 382.187,1036.22 L 383.176,1036.27 L 384.167,1036.31 L 385.159,1036.34 L 386.153,1036.38 L 387.149,1036.41 L 388.149,1036.43 L 389.149,1036.45 L 390.152,1036.47 L 391.157,1036.49 L 392.164,1036.5 L 393.172,1036.51 L 394.183,1036.52 L 395.195,1036.52 L 396.549,1036.52 L 397.901,1036.51 L 399.249,1036.49 L 400.595,1036.47 L 401.936,1036.44 L 403.275,1036.41 L 404.608,1036.36 L 405.939,1036.32 L 407.265,1036.26 L 408.588,1036.21 L 409.908,1036.14 L 411.223,1036.07 L 412.532,1035.99 L 413.84,1035.91 L 415.143,1035.82 L 416.44,1035.72 L 417.735,1035.62 L 419.025,1035.51 L 420.309,1035.4 L 421.591,1035.28 L 422.865,1035.16 L 424.137,1035.02 L 425.403,1034.89 L 426.665,1034.75 L 427.923,1034.6 L 429.173,1034.45 L 430.42,1034.29 L 431.663,1034.12 L 432.899,1033.95 L 434.131,1033.78 L 435.357,1033.6 L 436.577,1033.41 L 437.793,1033.22 L 439.003,1033.02 L 440.208,1032.82 L 441.405,1032.61 L 442.599,1032.4 L 443.787,1032.18 L 444.969,1031.96 L 446.144,1031.73 L 447.313,1031.5 L 448.477,1031.26 L 449.635,1031.01 L 450.787,1030.76 L 451.932,1030.51 L 453.072,1030.25 L 454.204,1029.99 L 455.331,1029.72 L 456.451,1029.44 L 457.564,1029.16 L 458.671,1028.88 L 459.771,1028.59 L 460.864,1028.3 L 461.961,1028 L 462.843,1027.73 Z "/>
			</g>
		</g>
		<g id="dp_group007">
			<g id="dp_group008">
				<path id="dp_path009" fill="#0a0edf" fill-rule="evenodd" d="M 391.285,971.959 L 391.723,973.219 L 391.337,976.175 L 395.912,971.059 L 389.151,969.877 Z "/>
				<path id="dp_path010" fill="#0a0edf" fill-rule="evenodd" d="M 313.928,1000.22 L 313.491,998.956 L 313.876,996 L 309.301,1001.12 L 316.063,1002.3 Z "/>
				<path id="dp_path011" fill="#0a0edf" d="M 391.285,971.96 L 313.491,998.956 L 313.928,1000.21 L 391.723,973.219 Z "/>
			</g>
		</g>
		<path id="dp_path012" fill="none" fill-rule="evenodd" stroke="#f27705" stroke-width="2" d="M 395.331,1098.08 C 355.935,1097.76 318.4,1062.88 291.815,1001.87"/>
		<path id="dp_path013" fill="none" fill-rule="evenodd" stroke="#f27705" stroke-width="2" d="M 275.965,998.611 C 270.049,991.857 266.796,984.485 266.796,976.763 C 266.796,944.311 324.28,918.005 395.195,918.005 C 466.109,918.005 523.593,944.311 523.593,976.763 C 523.593,996.012 503.365,1013.1 472.101,1023.82"/>
		<path id="dp_path014" fill="none" fill-rule="evenodd" stroke="#f27705" stroke-width="2" d="M 395.78,878.299 C 384.289,878.261 373.196,870.872 364.551,857.497"/>
		<path id="dp_path015" fill="none" fill-rule="evenodd" stroke="black" stroke-width="1.33333" stroke-dasharray="6.4,3.2,6.4,3.2" d="M 395.867,793.895 L 395.867,1137.18"/>
		<path id="dp_path016" fill="none" fill-rule="evenodd" stroke="#0a0edf" stroke-width="1.33333" d="M 395.867,793.895 L 295.467,995.464"/>
		<path id="dp_path017" fill="#f27705" fill-rule="evenodd" d="M 477.408,1049.52 L 478.177,1049.52 L 480.348,1043.79 C 482.449,1043.77 484.453,1043.18 486.355,1042.01 C 488.273,1040.87 489.58,1039.32 490.279,1037.37 C 490.917,1035.39 490.681,1033.9 489.572,1032.92 C 488.473,1031.93 486.997,1031.37 485.145,1031.23 C 485.861,1029.33 486.517,1027.51 487.113,1025.76 C 487.347,1025.07 487.449,1024.58 487.421,1024.28 C 487.333,1023.97 487.043,1023.82 486.551,1023.82 C 486.06,1023.82 485.683,1023.97 485.423,1024.28 C 485.136,1024.58 484.884,1025.07 484.671,1025.76 C 484.073,1027.51 483.492,1029.33 482.924,1031.23 C 480.977,1031.37 479.136,1031.93 477.403,1032.92 C 475.585,1033.9 474.321,1035.39 473.608,1037.37 C 472.985,1039.32 473.245,1040.87 474.395,1042.01 C 475.483,1043.18 477.064,1043.77 479.144,1043.79 Z M 479.383,1043.01 C 477.805,1042.87 476.799,1042.25 476.368,1041.14 C 475.893,1040.05 475.903,1038.77 476.396,1037.31 C 476.909,1035.8 477.717,1034.56 478.824,1033.58 C 479.9,1032.61 481.204,1032.08 482.739,1032.01 Z M 484.789,1032.01 C 486.275,1032.08 487.233,1032.61 487.663,1033.58 C 488.089,1034.56 488.047,1035.8 487.533,1037.31 C 487.04,1038.77 486.195,1040.05 485.008,1041.14 C 483.812,1042.25 482.356,1042.87 480.639,1043.01 Z "/>
		<path id="dp_path018" fill="#f27705" fill-rule="evenodd" d="M 370.301,898.244 C 371.173,898.225 372.053,897.929 372.933,897.355 C 373.789,896.807 374.605,896.069 375.38,895.141 C 376.961,893.203 378.187,890.976 379.06,888.463 C 379.481,887.223 379.783,886.021 379.961,884.855 C 380.111,883.691 380.107,882.641 379.944,881.709 C 379.801,880.777 379.489,880.031 379.012,879.473 C 378.511,878.921 377.829,878.648 376.961,878.648 C 376.112,878.648 375.259,878.921 374.403,879.473 C 373.544,880.031 372.716,880.777 371.923,881.709 C 370.296,883.677 369.052,885.928 368.191,888.463 C 367.337,890.976 367.059,893.203 367.359,895.141 C 367.52,896.069 367.845,896.807 368.327,897.355 C 368.801,897.929 369.457,898.225 370.301,898.244 Z M 376.288,888.491 L 375.704,890.205 C 374.953,892.421 374.149,894.183 373.299,895.492 C 372.401,896.852 371.481,897.539 370.535,897.557 C 369.636,897.539 369.204,896.852 369.243,895.492 C 369.235,894.183 369.607,892.421 370.359,890.205 L 370.943,888.491 Z M 371.315,887.399 L 372.017,885.327 C 372.557,883.741 373.236,882.363 374.059,881.197 C 374.479,880.627 374.915,880.169 375.365,879.825 C 375.812,879.499 376.265,879.335 376.728,879.335 C 377.225,879.335 377.585,879.499 377.809,879.825 C 378.027,880.169 378.151,880.627 378.184,881.197 C 378.177,882.363 377.903,883.741 377.364,885.327 L 376.659,887.399 Z "/>
		<text id="dp_text001" transform="matrix(1,0,0,1,329.857,907.056)" xml:space="preserve" fill="#0a0edf" font-family="Times New Roman" font-size="27" font-weight="400" font-style="italic" x="0" y="0">l </text>
		<g id="dp_group020">
			<text id="dp_text002" transform="matrix(1,0,0,1,250.116,920.912)" xml:space="preserve" fill="#0a0edf" font-family="Times New Roman" font-size="27" font-weight="400" font-style="italic" x="0" y="0">l </text>
			<path id="dp_path022" fill="#f27705" fill-rule="evenodd" d="M 270.896,891.617 C 271.467,891.617 271.949,891.815 272.34,892.209 C 272.731,892.607 272.924,893.084 272.924,893.645 C 272.924,894.207 272.727,894.684 272.331,895.08 C 271.935,895.477 271.457,895.673 270.896,895.673 C 270.335,895.673 269.856,895.477 269.46,895.08 C 269.064,894.684 268.868,894.207 268.868,893.645 C 268.868,893.075 269.064,892.591 269.46,892.201 C 269.856,891.811 270.335,891.617 270.896,891.617 Z "/>
			<path id="dp_path023" fill="#f27705" fill-rule="evenodd" d="M 264.451,921.316 C 265.324,921.297 266.204,921.001 267.084,920.427 C 267.94,919.877 268.755,919.141 269.531,918.213 C 271.111,916.275 272.337,914.048 273.209,911.535 C 273.632,910.295 273.932,909.092 274.111,907.927 C 274.261,906.763 274.256,905.713 274.095,904.781 C 273.951,903.849 273.639,903.103 273.161,902.544 C 272.661,901.993 271.979,901.72 271.111,901.72 C 270.263,901.72 269.408,901.993 268.552,902.544 C 267.695,903.103 266.867,903.849 266.072,904.781 C 264.447,906.748 263.201,909 262.341,911.535 C 261.487,914.048 261.208,916.275 261.508,918.213 C 261.671,919.141 261.995,919.877 262.477,920.427 C 262.951,921.001 263.607,921.297 264.451,921.316 Z M 270.439,911.563 L 269.855,913.277 C 269.104,915.493 268.3,917.255 267.448,918.564 C 266.552,919.923 265.632,920.609 264.685,920.629 C 263.785,920.609 263.355,919.923 263.392,918.564 C 263.385,917.255 263.757,915.493 264.508,913.277 L 265.092,911.563 Z M 265.464,910.471 L 266.168,908.399 C 266.707,906.813 267.387,905.435 268.209,904.268 C 268.629,903.699 269.065,903.241 269.516,902.897 C 269.961,902.571 270.415,902.407 270.877,902.407 C 271.376,902.407 271.736,902.571 271.96,902.897 C 272.177,903.241 272.301,903.699 272.335,904.268 C 272.327,905.435 272.053,906.813 271.515,908.399 L 270.808,910.471 Z "/>
		</g>
		<path id="dp_path024" fill="#f27705" fill-rule="evenodd" d="M 315.016,1085.74 C 315.889,1085.72 316.769,1085.42 317.649,1084.85 C 318.505,1084.3 319.32,1083.56 320.096,1082.63 C 321.676,1080.7 322.903,1078.47 323.775,1075.95 C 324.197,1074.71 324.497,1073.51 324.676,1072.35 C 324.827,1071.18 324.821,1070.13 324.66,1069.2 C 324.516,1068.27 324.204,1067.52 323.727,1066.97 C 323.227,1066.41 322.544,1066.14 321.676,1066.14 C 320.828,1066.14 319.973,1066.41 319.117,1066.97 C 318.259,1067.52 317.432,1068.27 316.637,1069.2 C 315.012,1071.17 313.767,1073.42 312.905,1075.95 C 312.052,1078.47 311.773,1080.7 312.073,1082.63 C 312.236,1083.56 312.56,1084.3 313.041,1084.85 C 313.516,1085.42 314.172,1085.72 315.016,1085.74 Z M 321.004,1075.98 L 320.42,1077.7 C 319.668,1079.91 318.865,1081.68 318.013,1082.99 C 317.117,1084.34 316.196,1085.03 315.249,1085.05 C 314.351,1085.03 313.92,1084.34 313.957,1082.99 C 313.951,1081.68 314.323,1079.91 315.073,1077.7 L 315.657,1075.98 Z M 316.029,1074.89 L 316.733,1072.82 C 317.272,1071.23 317.952,1069.86 318.775,1068.69 C 319.195,1068.12 319.631,1067.66 320.081,1067.32 C 320.527,1066.99 320.98,1066.83 321.443,1066.83 C 321.941,1066.83 322.301,1066.99 322.525,1067.32 C 322.743,1067.66 322.867,1068.12 322.9,1068.69 C 322.892,1069.86 322.619,1071.23 322.08,1072.82 L 321.373,1074.89 Z "/>
		<g id="dp_group025">
			<g id="dp_group026">
				<path id="dp_path027" fill="#0a0edf" fill-rule="evenodd" d="M 191.2,871.561 L 192.533,871.561 L 195.2,872.895 L 191.867,866.895 L 188.533,872.895 Z "/>
				<path id="dp_path028" fill="#0a0edf" fill-rule="evenodd" d="M 192.533,1038.89 L 191.2,1038.89 L 188.533,1037.56 L 191.867,1043.56 L 195.2,1037.56 Z "/>
				<path id="dp_path029" fill="#0a0edf" d="M 191.2,871.561 L 191.2,877.961 L 192.533,877.961 L 192.533,871.561 Z M 191.2,881.161 L 191.2,887.561 L 192.533,887.561 L 192.533,881.161 Z M 191.2,890.761 L 191.2,897.161 L 192.533,897.161 L 192.533,890.761 Z M 191.2,900.361 L 191.2,906.761 L 192.533,906.761 L 192.533,900.361 Z M 191.2,909.961 L 191.2,916.361 L 192.533,916.361 L 192.533,909.961 Z M 191.2,919.561 L 191.2,925.961 L 192.533,925.961 L 192.533,919.561 Z M 191.2,929.161 L 191.2,935.561 L 192.533,935.561 L 192.533,929.161 Z M 191.2,938.761 L 191.2,945.161 L 192.533,945.161 L 192.533,938.761 Z M 191.2,948.361 L 191.2,954.761 L 192.533,954.761 L 192.533,948.361 Z M 191.2,957.961 L 191.2,964.361 L 192.533,964.361 L 192.533,957.961 Z M 191.2,967.561 L 191.2,973.961 L 192.533,973.961 L 192.533,967.561 Z M 191.2,977.161 L 191.2,983.561 L 192.533,983.561 L 192.533,977.161 Z M 191.2,986.761 L 191.2,993.161 L 192.533,993.161 L 192.533,986.761 Z M 191.2,996.361 L 191.2,1002.76 L 192.533,1002.76 L 192.533,996.361 Z M 191.2,1005.96 L 191.2,1012.36 L 192.533,1012.36 L 192.533,1005.96 Z M 191.2,1015.56 L 191.2,1021.96 L 192.533,1021.96 L 192.533,1015.56 Z M 191.2,1025.16 L 191.2,1031.56 L 192.533,1031.56 L 192.533,1025.16 Z M 191.2,1034.76 L 191.2,1038.89 L 192.533,1038.89 L 192.533,1034.76 Z "/>
			</g>
		</g>
		<path id="dp_path030" fill="none" fill-rule="evenodd" stroke="black" stroke-width="1.33333" stroke-dasharray="6.4,3.2,6.4,3.2" d="M 168.317,1050.87 L 396.413,970.868"/>
		<path id="dp_path031" fill="none" fill-rule="evenodd" stroke="black" stroke-width="1.33333" stroke-dasharray="6.4,3.2,6.4,3.2" d="M 168.317,1178.2 L 396.413,1098.2"/>
		<g id="dp_group032">
			<text id="dp_text003" transform="matrix(6.71838e-016,-1,1,6.71868e-016,418.182,903.214)" xml:space="preserve" fill="black" font-family="Arial" font-size="23" font-weight="400" x="0" y="0">cos </text>
			<text id="dp_text004" transform="matrix(6.16328e-016,-1,1,6.71868e-016,418.182,911.518)" xml:space="preserve" fill="#0a0edf" font-family="Times New Roman" font-size="23" font-weight="400" font-style="italic" x="0" y="0">l </text>
			<path id="dp_path035" fill="#f27705" fill-rule="evenodd" d="M 419.579,863.813 C 419.563,863.077 419.313,862.335 418.828,861.592 C 418.365,860.869 417.744,860.18 416.961,859.527 C 415.324,858.192 413.445,857.157 411.324,856.421 C 410.277,856.065 409.263,855.812 408.279,855.66 C 407.296,855.533 406.411,855.537 405.624,855.675 C 404.837,855.795 404.207,856.059 403.736,856.461 C 403.272,856.884 403.04,857.46 403.04,858.192 C 403.04,858.909 403.272,859.629 403.736,860.352 C 404.207,861.076 404.837,861.775 405.624,862.445 C 407.284,863.817 409.184,864.868 411.324,865.595 C 413.445,866.315 415.324,866.551 416.961,866.297 C 417.744,866.16 418.365,865.887 418.828,865.48 C 419.313,865.079 419.563,864.525 419.579,863.813 Z M 411.348,858.76 L 412.795,859.253 C 414.664,859.887 416.152,860.565 417.256,861.284 C 418.404,862.04 418.984,862.817 419,863.616 C 418.984,864.375 418.404,864.739 417.256,864.707 C 416.152,864.713 414.664,864.399 412.795,863.765 L 411.348,863.272 Z M 410.427,862.957 L 408.677,862.364 C 407.339,861.909 406.176,861.336 405.192,860.641 C 404.711,860.287 404.324,859.919 404.035,859.539 C 403.759,859.163 403.62,858.78 403.62,858.389 C 403.62,857.969 403.759,857.665 404.035,857.476 C 404.324,857.292 404.711,857.188 405.192,857.16 C 406.176,857.165 407.339,857.397 408.677,857.852 L 410.427,858.448 Z "/>
		</g>
		<path id="dp_path036" fill="none" fill-rule="evenodd" stroke="black" stroke-width="1.33333" stroke-dasharray="6.4,3.2,6.4,3.2" d="M 395.867,793.895 L 395.867,1137.18"/>
		<g id="dp_group037">
			<text id="dp_text005" transform="matrix(0.939394,-0.34284,0.34284,0.939394,357.64,1005.73)" xml:space="preserve" fill="black" font-family="Arial" font-size="21" font-weight="400" x="0" y="0">sin </text>
			<text id="dp_text006" transform="matrix(0.939394,-0.34284,0.34284,0.939394,350.519,1008.32)" xml:space="preserve" fill="#0a0edf" font-family="Times New Roman" font-size="21" font-weight="400" font-style="italic" x="0" y="0">l </text>
			<path id="dp_path040" fill="#f27705" fill-rule="evenodd" d="M 388.249,995.912 C 388.876,995.668 389.435,995.221 389.92,994.573 C 390.395,993.951 390.791,993.201 391.107,992.325 C 391.739,990.504 392.037,988.568 392.005,986.519 C 391.983,985.509 391.883,984.56 391.704,983.669 C 391.505,982.787 391.225,982.029 390.861,981.397 C 390.512,980.76 390.088,980.303 389.596,980.024 C 389.088,979.757 388.521,979.74 387.893,979.969 C 387.279,980.193 386.733,980.617 386.26,981.243 C 385.785,981.872 385.384,982.632 385.056,983.516 C 384.397,985.369 384.092,987.328 384.139,989.389 C 384.184,991.435 384.571,993.12 385.3,994.444 C 385.663,995.073 386.092,995.52 386.585,995.791 C 387.081,996.081 387.633,996.121 388.249,995.912 Z M 390.007,987.272 L 390.037,988.667 C 390.079,990.468 389.963,991.956 389.692,993.129 C 389.403,994.349 388.917,995.089 388.237,995.353 C 387.581,995.577 387.088,995.195 386.756,994.2 C 386.405,993.255 386.209,991.881 386.168,990.079 L 386.137,988.684 Z M 386.119,987.795 L 386.08,986.109 C 386.051,984.819 386.179,983.641 386.467,982.58 C 386.62,982.057 386.815,981.611 387.051,981.243 C 387.287,980.889 387.571,980.649 387.905,980.528 C 388.267,980.396 388.571,980.42 388.819,980.597 C 389.067,980.788 389.277,981.087 389.452,981.491 C 389.755,982.337 389.921,983.407 389.949,984.697 L 389.987,986.383 Z "/>
		</g>
		<g id="dp_group041">
			<g id="dp_group042">
				<path id="dp_path043" fill="#0a0edf" fill-rule="evenodd" d="M 395.2,801.228 L 396.533,801.228 L 399.2,802.561 L 395.867,796.561 L 392.533,802.561 Z "/>
				<path id="dp_path044" fill="#0a0edf" fill-rule="evenodd" d="M 396.533,965.535 L 395.2,965.535 L 392.533,964.201 L 395.867,970.201 L 399.2,964.201 Z "/>
				<path id="dp_path045" fill="#0a0edf" d="M 395.2,801.228 L 395.2,965.535 L 396.533,965.535 L 396.533,801.228 Z "/>
			</g>
		</g>
		<g id="dp_group046">
			<text id="dp_text007" transform="matrix(1,3.88578e-016,-3.88578e-016,1,118.274,1103.49)" xml:space="preserve" fill="black" font-family="Arial" font-size="27" font-weight="400" x="0" y="0">cos </text>
			<text id="dp_text008" transform="matrix(1,3.33067e-016,-3.88578e-016,1,62.4357,1103.49)" xml:space="preserve" fill="#0a0edf" font-family="Times New Roman" font-size="27" font-weight="400" font-style="italic" x="0" y="0">l </text>
			<path id="dp_path049" fill="#f27705" fill-rule="evenodd" d="M 164.959,1105.14 C 165.831,1105.12 166.711,1104.83 167.591,1104.25 C 168.447,1103.7 169.263,1102.97 170.037,1102.04 C 171.619,1100.1 172.844,1097.87 173.716,1095.36 C 174.139,1094.12 174.439,1092.92 174.617,1091.75 C 174.768,1090.59 174.763,1089.54 174.601,1088.61 C 174.459,1087.67 174.145,1086.93 173.669,1086.37 C 173.168,1085.82 172.487,1085.55 171.619,1085.55 C 170.769,1085.55 169.916,1085.82 169.06,1086.37 C 168.201,1086.93 167.373,1087.67 166.58,1088.61 C 164.953,1090.57 163.708,1092.83 162.848,1095.36 C 161.995,1097.87 161.715,1100.1 162.016,1102.04 C 162.177,1102.97 162.501,1103.7 162.984,1104.25 C 163.459,1104.83 164.113,1105.12 164.959,1105.14 Z M 170.945,1095.39 L 170.361,1097.1 C 169.611,1099.32 168.807,1101.08 167.956,1102.39 C 167.059,1103.75 166.139,1104.44 165.192,1104.45 C 164.293,1104.44 163.861,1103.75 163.899,1102.39 C 163.892,1101.08 164.264,1099.32 165.015,1097.1 L 165.6,1095.39 Z M 165.972,1094.3 L 166.675,1092.22 C 167.213,1090.64 167.893,1089.26 168.716,1088.09 C 169.136,1087.52 169.572,1087.07 170.023,1086.72 C 170.469,1086.4 170.921,1086.23 171.384,1086.23 C 171.883,1086.23 172.243,1086.4 172.467,1086.72 C 172.684,1087.07 172.808,1087.52 172.841,1088.09 C 172.835,1089.26 172.56,1090.64 172.021,1092.22 L 171.315,1094.3 Z "/>
			<text id="dp_text009" transform="matrix(1,3.88578e-016,-3.88578e-016,1,72.2742,1103.49)" xml:space="preserve" fill="black" font-family="Arial" font-size="27" font-weight="400" x="0" y="0">( </text>
			<text id="dp_text010" transform="matrix(1,3.88578e-016,-3.88578e-016,1,174.274,1103.49)" xml:space="preserve" fill="black" font-family="Arial" font-size="27" font-weight="400" x="0" y="0">) </text>
			<text id="dp_text011" transform="matrix(1,3.88578e-016,-3.88578e-016,1,81.2742,1103.49)" xml:space="preserve" fill="black" font-family="Arial" font-size="27" font-weight="400" x="0" y="0">1 </text>
			<path id="dp_path053" fill="black" fill-rule="evenodd" d="M 98.1373,1097.62 L 98.1373,1095.21 L 113.5,1095.21 L 113.5,1097.62 Z "/>
		</g>
		<g id="dp_group054">
			<g id="dp_group055">
				<path id="dp_path056" fill="#0a0edf" fill-rule="evenodd" d="M 191.2,1048.23 L 192.533,1048.23 L 195.2,1049.56 L 191.867,1043.56 L 188.533,1049.56 Z "/>
				<path id="dp_path057" fill="#0a0edf" fill-rule="evenodd" d="M 192.533,1166.54 L 191.2,1166.54 L 188.533,1165.2 L 191.867,1171.2 L 195.2,1165.2 Z "/>
				<path id="dp_path058" fill="#0a0edf" d="M 191.2,1048.23 L 191.2,1054.63 L 192.533,1054.63 L 192.533,1048.23 Z M 191.2,1057.83 L 191.2,1064.23 L 192.533,1064.23 L 192.533,1057.83 Z M 191.2,1067.43 L 191.2,1073.83 L 192.533,1073.83 L 192.533,1067.43 Z M 191.2,1077.03 L 191.2,1083.43 L 192.533,1083.43 L 192.533,1077.03 Z M 191.2,1086.63 L 191.2,1093.03 L 192.533,1093.03 L 192.533,1086.63 Z M 191.2,1096.23 L 191.2,1102.63 L 192.533,1102.63 L 192.533,1096.23 Z M 191.2,1105.83 L 191.2,1112.23 L 192.533,1112.23 L 192.533,1105.83 Z M 191.2,1115.43 L 191.2,1121.83 L 192.533,1121.83 L 192.533,1115.43 Z M 191.2,1125.03 L 191.2,1131.43 L 192.533,1131.43 L 192.533,1125.03 Z M 191.2,1134.63 L 191.2,1141.03 L 192.533,1141.03 L 192.533,1134.63 Z M 191.2,1144.23 L 191.2,1150.63 L 192.533,1150.63 L 192.533,1144.23 Z M 191.2,1153.83 L 191.2,1160.23 L 192.533,1160.23 L 192.533,1153.83 Z M 191.2,1163.43 L 191.2,1166.54 L 192.533,1166.54 L 192.533,1163.43 Z "/>
			</g>
		</g>
		<path id="dp_path059" fill="white" fill-rule="evenodd" stroke="none" stroke-width="1.33333" stroke-dasharray="6.4,3.2,6.4,3.2" d="M 396.011,1049.73 C 401.483,1049.73 405.919,1055.33 405.919,1062.24 C 405.919,1069.15 401.483,1074.75 396.011,1074.75 C 390.539,1074.75 386.103,1069.15 386.103,1062.24 C 386.103,1055.33 390.539,1049.73 396.011,1049.73 Z "/>
		<path id="dp_path060" fill="none" fill-rule="evenodd" stroke="black" stroke-width="1.33333" stroke-dasharray="6.4,3.2,6.4,3.2" d="M 168.317,875.868 L 396.413,795.868"/>
		<g id="dp_group061">
			<path id="dp_path062" fill="#f27705" fill-rule="evenodd" d="M 429.623,1092.33 L 430.32,1092.66 L 434.725,1088.4 C 436.633,1089.28 438.699,1089.6 440.915,1089.36 C 443.139,1089.14 444.98,1088.3 446.443,1086.83 C 447.867,1085.31 448.285,1083.87 447.704,1082.5 C 447.129,1081.14 446.033,1080 444.42,1079.08 C 445.873,1077.68 447.243,1076.31 448.528,1074.98 C 449.033,1074.46 449.336,1074.06 449.437,1073.77 C 449.489,1073.46 449.292,1073.19 448.847,1072.98 C 448.403,1072.77 447.996,1072.75 447.629,1072.92 C 447.244,1073.07 446.804,1073.41 446.317,1073.94 C 445.032,1075.27 443.729,1076.67 442.409,1078.14 C 440.589,1077.43 438.684,1077.16 436.695,1077.31 C 434.629,1077.43 432.853,1078.24 431.361,1079.73 C 429.968,1081.23 429.545,1082.73 430.096,1084.26 C 430.584,1085.78 431.763,1086.99 433.635,1087.89 Z M 434.184,1087.28 C 432.815,1086.49 432.169,1085.5 432.252,1084.31 C 432.289,1083.12 432.843,1081.97 433.911,1080.86 C 435.017,1079.71 436.277,1078.94 437.697,1078.52 C 439.085,1078.1 440.489,1078.18 441.908,1078.77 Z M 443.764,1079.64 C 445.075,1080.34 445.719,1081.22 445.692,1082.29 C 445.66,1083.36 445.092,1084.46 443.985,1085.61 C 442.917,1086.71 441.609,1087.51 440.068,1087.99 C 438.512,1088.49 436.931,1088.43 435.321,1087.82 Z "/>
			<text id="dp_text012" transform="matrix(0.904604,0.426253,-0.426253,0.904604,376.086,1060.69)" xml:space="preserve" fill="black" font-family="Arial" font-size="27" font-weight="400" x="0" y="0">sin </text>
			<text id="dp_text013" transform="matrix(0.904604,0.426253,-0.426253,0.904604,367.186,1056.5)" xml:space="preserve" fill="#0a0edf" font-family="Times New Roman" font-size="27" font-weight="400" font-style="italic" x="0" y="0">l </text>
			<path id="dp_path065" fill="#f27705" fill-rule="evenodd" d="M 413.088,1079.96 C 413.885,1080.31 414.808,1080.42 415.848,1080.28 C 416.856,1080.15 417.908,1079.83 419.005,1079.32 C 421.261,1078.24 423.32,1076.75 425.18,1074.84 C 426.091,1073.9 426.875,1072.94 427.533,1071.96 C 428.165,1070.98 428.608,1070.02 428.859,1069.11 C 429.127,1068.21 429.163,1067.4 428.969,1066.69 C 428.751,1065.98 428.251,1065.44 427.465,1065.07 C 426.697,1064.71 425.808,1064.59 424.8,1064.73 C 423.785,1064.87 422.719,1065.19 421.603,1065.69 C 419.293,1066.78 417.208,1068.28 415.348,1070.21 C 413.505,1072.12 412.303,1074.02 411.748,1075.9 C 411.5,1076.81 411.479,1077.61 411.681,1078.31 C 411.865,1079.03 412.332,1079.58 413.088,1079.96 Z M 422.661,1073.69 L 421.403,1074.99 C 419.779,1076.67 418.3,1077.93 416.972,1078.75 C 415.581,1079.59 414.456,1079.82 413.592,1079.44 C 412.787,1079.04 412.689,1078.23 413.303,1077.02 C 413.855,1075.83 414.943,1074.39 416.567,1072.71 L 417.825,1071.41 Z M 418.627,1070.58 L 420.147,1069.01 C 421.311,1067.8 422.512,1066.84 423.753,1066.14 C 424.376,1065.8 424.967,1065.57 425.52,1065.46 C 426.063,1065.35 426.543,1065.39 426.961,1065.59 C 427.412,1065.8 427.668,1066.11 427.732,1066.5 C 427.781,1066.9 427.699,1067.37 427.485,1067.9 C 426.983,1068.95 426.147,1070.08 424.983,1071.28 L 423.461,1072.86 Z "/>
			<path id="dp_path066" fill="#f27705" fill-rule="evenodd" d="M 450.204,1065.47 C 450.72,1065.71 451.073,1066.1 451.257,1066.62 C 451.443,1067.15 451.413,1067.66 451.175,1068.17 C 450.935,1068.68 450.553,1069.03 450.027,1069.22 C 449.497,1069.41 448.983,1069.38 448.475,1069.14 C 447.967,1068.9 447.619,1068.52 447.429,1067.99 C 447.239,1067.47 447.265,1066.95 447.504,1066.44 C 447.748,1065.93 448.131,1065.57 448.657,1065.39 C 449.181,1065.2 449.696,1065.23 450.204,1065.47 Z "/>
		</g>
		<g id="dp_group067">
			<g id="dp_group068">
				<path id="dp_path069" fill="#0a0edf" d="M 394.528,953.967 L 394.528,971.235 L 378.031,976.975 L 378.031,959.708 L 394.528,953.967 L 395.861,952.092 L 376.7,958.761 L 376.7,978.849 L 395.861,972.181 L 395.861,952.092 Z "/>
			</g>
		</g>
		<path id="dp_path070" fill="none" fill-rule="evenodd" stroke="#0a0edf" stroke-width="1.33333" d="M 314.679,1000.13 L 341.312,1013.64 L 315.64,1021.75"/>
		<path id="dp_path071" fill="none" fill-rule="evenodd" stroke="#0a0edf" stroke-width="1.33333" d="M 285.519,985.601 L 294.78,964.236 L 300.339,984.829"/>
		<path id="dp_path072" fill="#d60101" fill-rule="evenodd" stroke="none" stroke-width="1.33333" d="M 290.292,986.375 C 301.672,986.375 310.897,995.6 310.897,1006.98 C 310.897,1018.36 301.672,1027.59 290.292,1027.59 C 278.912,1027.59 269.687,1018.36 269.687,1006.98 C 269.687,995.6 278.912,986.375 290.292,986.375 Z "/>
		<text id="dp_text014" transform="matrix(1,0,0,1,280.519,1014.86)" xml:space="preserve" fill="white" font-family="Arial" font-size="25" font-weight="400" font-style="italic" x="0" y="0">m </text>
		<g id="dp_group074">
			<g id="dp_group075">
				<path id="dp_path076" fill="black" fill-rule="evenodd" d="M 271.152,940.219 L 273.721,939.504 L 278.86,938.076 L 268.867,927.015 L 266.013,941.647 Z "/>
				<path id="dp_path077" fill="black" d="M 271.153,940.219 L 285.205,990.791 L 287.773,990.076 L 273.721,939.504 Z "/>
			</g>
		</g>
		<g id="dp_group078">
			<g id="dp_group079">
				<path id="dp_path080" fill="black" fill-rule="evenodd" d="M 354.687,1043.44 L 353.415,1045.78 L 350.871,1050.47 L 365.768,1050.97 L 357.232,1038.75 Z "/>
				<path id="dp_path081" fill="black" d="M 354.687,1043.44 L 305.796,1016.89 L 304.524,1019.24 L 353.415,1045.78 Z "/>
			</g>
		</g>
	</g>
</svg>